<svg xmlns="http://www.w3.org/2000/svg" width="295.493" height="213.37" viewBox="0 0 295.493 213.37">
  <g id="Group_3" data-name="Group 3" transform="translate(0)">
    <rect id="Rectangle_14" data-name="Rectangle 14" width="2.63" height="103.899" transform="translate(256.587 103.931)" fill="#646184"/>
    <path id="Path_2485" data-name="Path 2485" d="M966.679,309.425c.167,36.331-25.393,65.9-25.393,65.9s-25.832-29.334-26-65.665,25.393-65.9,25.393-65.9S966.511,273.094,966.679,309.425Z" transform="translate(-683.186 -192.254)" fill="#646184"/>
    <rect id="Rectangle_15" data-name="Rectangle 15" width="1.353" height="53.438" transform="translate(205.271 152.817)" fill="#646184"/>
    <path id="Path_2486" data-name="Path 2486" d="M794.367,555.422c.086,18.686-13.06,33.895-13.06,33.895s-13.286-15.087-13.372-33.773,13.06-33.895,13.06-33.895S794.281,536.736,794.367,555.422Z" transform="translate(-575.258 -395.795)" fill="#646184"/>
    <ellipse id="Ellipse_43" data-name="Ellipse 43" cx="36.653" cy="5.618" rx="36.653" ry="5.618" transform="translate(196.636 202.133)" fill="#3f3d56"/>
    <path id="Path_2487" data-name="Path 2487" d="M865.432,323.235c-3.105-5.247-9.249-5.492-9.249-5.492s-5.987-.766-9.827,7.226c-3.58,7.449-8.52,14.64-.8,16.384l1.4-4.343.864,4.666a30.224,30.224,0,0,0,3.3.056c8.272-.267,16.151.078,15.9-2.89C866.684,334.9,868.42,328.284,865.432,323.235Z" transform="translate(-629.12 -246.428)" fill="#2f2e41"/>
    <path id="Path_2488" data-name="Path 2488" d="M889.234,369.4s4.013,5.618,1.605,10.167,5.618,9.364,5.618,9.364l5.886-12.842s-6.956-4.548-5.083-8.829Z" transform="translate(-664.105 -282.71)" fill="#fbbebe"/>
    <circle id="Ellipse_44" data-name="Ellipse 44" cx="6.956" cy="6.956" r="6.956" transform="translate(220.849 75.184)" fill="#fbbebe"/>
    <path id="Path_2489" data-name="Path 2489" d="M809.255,347.308l5.813-7.5s2.047-7.862,5.011-7.463-1.171,9.428-1.171,9.428l-5.776,8.3Z" transform="translate(-605.523 -257.127)" fill="#fbbebe"/>
    <path id="Path_2490" data-name="Path 2490" d="M871.469,707.818l1.873,9.9,4.013,1.07-1.07-11.772Z" transform="translate(-638.313 -517.858)" fill="#fbbebe"/>
    <path id="Path_2491" data-name="Path 2491" d="M1022.469,664.155l7.224,9.9,2.943,1.338,2.408-4.013-7.224-9.364Z" transform="translate(-748.914 -484.897)" fill="#fbbebe"/>
    <path id="Path_2492" data-name="Path 2492" d="M874.767,402.959l-4.463-5.875s-8.647,1.594-9.449,2.4S862.995,415,862.995,415s.535,4.013,2.943,6.153l2.408,1.605,19.8-4.013.744-8.809a23.118,23.118,0,0,0-6.1-17.678h0l-3.445.471Z" transform="translate(-643.217 -301.021)" fill="#575a89"/>
    <path id="Path_2493" data-name="Path 2493" d="M811.761,389.029l-1.338-.535-6.154-.535s-2.14-.535-1.605-1.605,1.07-1.338,0-1.605-1.338-.535-1.07-1.338A10.648,10.648,0,0,1,803.467,381l-4.548-3.746s-.246.174-.644.5c-2.258,1.828-9.4,8.425-4.172,15.021,6.154,7.759,13.377,12.307,19.263,10.7Z" transform="translate(-593.053 -290.034)" fill="#575a89"/>
    <path id="Path_2494" data-name="Path 2494" d="M882.391,493.933v3.746s-2.408,4.548-1.605,8.829,1.07,6.421,1.07,6.421a36.527,36.527,0,0,0,1.873,10.7c1.873,5.351-4.281,40.4,3.478,40.934s12.039,1.07,14.447-1.605-4.013-48.693-4.013-48.693,21.939,45.75,26.487,43.877,16.053-6.154,14.715-8.561-35.048-55.917-35.048-55.917l-1.07-2.408Z" transform="translate(-657.797 -373.534)" fill="#43424d"/>
    <path id="Path_2495" data-name="Path 2495" d="M916.848,791.2s-4.281-.268-4.281,1.07-2.14,5.886-2.14,5.886-1.605,5.351,2.675,4.816,6.956-5.351,6.956-5.351l-1.07-5.083Z" transform="translate(-679.412 -593.212)" fill="#2f2e41"/>
    <path id="Path_2496" data-name="Path 2496" d="M1092.675,748.9s-3.746-2.408-3.478-.8.535,5.886,2.408,6.154,7.491,1.873,7.759,2.408,6.689,2.675,6.689-.8-4.013-6.154-4.013-6.154l-4.548-3.478s-2.943-.268-3.478,1.605S1092.675,748.9,1092.675,748.9Z" transform="translate(-810.559 -560.275)" fill="#2f2e41"/>
    <circle id="Ellipse_45" data-name="Ellipse 45" cx="4.442" cy="4.442" r="4.442" transform="translate(223.373 66.899)" fill="#2f2e41"/>
    <path id="Path_2497" data-name="Path 2497" d="M878.362,301.366a4.442,4.442,0,0,1,3.974-4.417,4.49,4.49,0,0,0-.467-.025,4.442,4.442,0,0,0,0,8.884,4.507,4.507,0,0,0,.468-.025A4.442,4.442,0,0,1,878.362,301.366Z" transform="translate(-655.457 -231.193)" fill="#2f2e41"/>
    <path id="Path_2498" data-name="Path 2498" d="M833.824,276.487l-6.069-3.18-8.382,1.3-1.734,7.659,4.317-.166,1.206-2.814v2.768l1.992-.077,1.156-4.48.723,4.769,7.081-.144Z" transform="translate(-598.884 -200.186)" fill="#2f2e41"/>
    <path id="Path_2499" data-name="Path 2499" d="M878.227,490.395l-9.361.253s-7.987,1.554-7.539-1.67,8.24-2.1,8.24-2.1l8.529-1.3Z" transform="translate(-643.651 -369.377)" fill="#fbbebe"/>
    <path id="Path_2500" data-name="Path 2500" d="M925.023,390.5a2,2,0,0,1,2.2,1.372c1.832,5.775,7.478,25.1,1.869,27.75-6.607,3.123-11.428,2.985-11.428,2.985l-2.581-6.354,2.349-2.2,2.508-16.126,1.2-6.836Z" transform="translate(-683.041 -299.718)" fill="#575a89"/>
    <path id="Path_2501" data-name="Path 2501" d="M869.4,379.515l-1.07,10.7-9.364,4.013,10.434-2.408Z" transform="translate(-629.158 -277.978)" opacity="0.4"/>
    <path id="Path_2502" data-name="Path 2502" d="M746.088,298.705h0a12.531,12.531,0,0,1,7.318,5.316l.875,1.355.044.056,15.353,4.492a1.119,1.119,0,0,1,.765,1.369l-1.192,4.37a1.119,1.119,0,0,1-1.381.783l-15.357-4.292h0l-1.542.583a13.783,13.783,0,0,1-8.862.3h0Z" transform="translate(-556.343 -232.498)" fill="#3f3d56"/>
    <ellipse id="Ellipse_46" data-name="Ellipse 46" cx="0.938" cy="1.758" rx="0.938" ry="1.758" transform="translate(202.276 78.793) rotate(-73.69)" fill="#575a89"/>
    <circle id="Ellipse_47" data-name="Ellipse 47" cx="0.645" cy="0.645" r="0.645" transform="translate(204.485 78.051)" fill="#3f3d56"/>
    <ellipse id="Ellipse_48" data-name="Ellipse 48" cx="7.515" cy="3.399" rx="7.515" ry="3.399" transform="matrix(0.308, -0.951, 0.951, 0.308, 182.245, 79.538)" fill="#abaabc"/>
    <path id="Path_2503" data-name="Path 2503" d="M745.585,306.89c1.234-3.8.9-7.35-.725-8.121a1.57,1.57,0,0,1,.288.064c1.785.579,2.2,4.249.915,8.2s-3.766,6.68-5.551,6.1a1.576,1.576,0,0,1-.189-.076C742.078,313.278,744.372,310.63,745.585,306.89Z" transform="translate(-555.033 -232.545)" opacity="0.4"/>
    <path id="Path_2504" data-name="Path 2504" d="M237.713,117.463,202.869,90.435a230.62,230.62,0,0,1-17.715-15.353c-9.933-9.468-23.416-17.037-39.115-21.068-38.141-9.791-68.357,7.57-82.1,33.063-21,38.955-37.095,102.169,56.022,68.521,20.365-7.359,40.978-8.141,56.608-12.017l56.6-11.669Z" transform="translate(-47.766 -51.242)" fill="#f0effa"/>
    <circle id="Ellipse_49" data-name="Ellipse 49" cx="1.873" cy="1.873" r="1.873" transform="translate(83.465 16.993)" fill="#f2f2f2"/>
    <path id="Path_2505" data-name="Path 2505" d="M452.019,85.36h-.488v-.487h-.1v.487h-.487v.1h.487v.487h.1v-.487h.488Z" transform="translate(-330.301 -62.166)" fill="#f2f2f2"/>
    <path id="Path_2506" data-name="Path 2506" d="M635.019,237.36h-.487v-.487h-.1v.487h-.487v.1h.487v.487h.1v-.487h.487Z" transform="translate(-464.34 -173.499)" fill="#f2f2f2"/>
    <path id="Path_2507" data-name="Path 2507" d="M622.019,284.36h-.487v-.487h-.1v.487h-.487v.1h.487v.487h.1v-.487h.487Z" transform="translate(-454.818 -207.925)" fill="#f2f2f2"/>
    <path id="Path_2508" data-name="Path 2508" d="M63.019,324.36h-.487v-.487h-.1v.487h-.487v.1h.487v.487h.1v-.487h.487Z" transform="translate(-45.375 -237.223)" fill="#f2f2f2"/>
    <path id="Path_2509" data-name="Path 2509" d="M143.019,106.36h-.487v-.487h-.1v.487h-.487v.1h.487v.487h.1v-.487h.487Z" transform="translate(-103.972 -77.547)" fill="#f2f2f2"/>
    <path id="Path_2510" data-name="Path 2510" d="M454.019,292.36h-.487v-.487h-.1v.487h-.487v.1h.487v.487h.1v-.487h.487Z" transform="translate(-331.766 -213.784)" fill="#f2f2f2"/>
    <path id="Path_2511" data-name="Path 2511" d="M263.019,42.36h-.487v-.487h-.1v.487h-.487v.1h.487v.487h.1v-.487h.487Z" transform="translate(-191.866 -30.67)" fill="#f2f2f2"/>
    <path id="Path_2512" data-name="Path 2512" d="M312.752,238.915l-.607.094c.19,1.215.34,2.456.449,3.684l.613-.054C313.1,241.4,312.945,240.143,312.752,238.915Z" transform="translate(-241.412 -188.705)" fill="#e6e6e6"/>
    <path id="Path_2513" data-name="Path 2513" d="M306.594,211.575l-.589.179c.356,1.177.674,2.384.944,3.585l.6-.136C307.276,213.989,306.952,212.769,306.594,211.575Z" transform="translate(-236.915 -168.679)" fill="#e6e6e6"/>
    <path id="Path_2514" data-name="Path 2514" d="M296.764,185.355l-.559.257c.514,1.121,1,2.271,1.431,3.422l.575-.217C297.77,187.654,297.286,186.487,296.764,185.355Z" transform="translate(-229.737 -149.474)" fill="#e6e6e6"/>
    <path id="Path_2515" data-name="Path 2515" d="M283.474,160.775l-.519.329c.661,1.038,1.295,2.114,1.884,3.192l.54-.294C284.785,162.91,284.143,161.824,283.474,160.775Z" transform="translate(-220.032 -131.471)" fill="#e6e6e6"/>
    <path id="Path_2516" data-name="Path 2516" d="M266.953,138.245l-.468.4c.8.936,1.573,1.916,2.306,2.906l.492-.367C268.545,140.182,267.761,139.193,266.953,138.245Z" transform="translate(-207.968 -114.968)" fill="#e6e6e6"/>
    <path id="Path_2517" data-name="Path 2517" d="M247.534,118.185l-.409.458c.92.821,1.822,1.686,2.681,2.566l.441-.431C249.378,119.887,248.465,119.015,247.534,118.185Z" transform="translate(-193.788 -100.275)" fill="#e6e6e6"/>
    <path id="Path_2518" data-name="Path 2518" d="M225.59,100.965l-.345.508c1.022.688,2.033,1.421,3,2.178l.38-.484C227.645,102.4,226.623,101.661,225.59,100.965Z" transform="translate(-177.762 -87.662)" fill="#e6e6e6"/>
    <path id="Path_2519" data-name="Path 2519" d="M206.4,89.005v.7c.639.334,1.273.685,1.894,1.043l.308-.532Q207.523,89.586,206.4,89.005Z" transform="translate(-163.962 -78.902)" fill="#e6e6e6"/>
    <path id="Path_2520" data-name="Path 2520" d="M314.57,267.191l.615-.011c.011.621.012,1.245,0,1.856l-.615-.01C314.582,268.422,314.581,267.8,314.57,267.191Z" transform="translate(-243.188 -209.407)" fill="#e6e6e6"/>
    <path id="Path_2521" data-name="Path 2521" d="M177.752,435.915l-.607.094c.19,1.215.34,2.456.449,3.684l.613-.054C178.1,438.4,177.945,437.144,177.752,435.915Z" transform="translate(-142.53 -332.999)" fill="#e6e6e6"/>
    <path id="Path_2522" data-name="Path 2522" d="M171.594,408.575l-.589.179c.356,1.177.674,2.384.944,3.585l.6-.136C172.276,410.989,171.952,409.769,171.594,408.575Z" transform="translate(-138.033 -312.973)" fill="#e6e6e6"/>
    <path id="Path_2523" data-name="Path 2523" d="M161.764,382.355l-.559.257c.514,1.121,1,2.271,1.431,3.422l.575-.217C162.77,384.654,162.286,383.487,161.764,382.355Z" transform="translate(-130.855 -293.768)" fill="#e6e6e6"/>
    <path id="Path_2524" data-name="Path 2524" d="M148.474,357.775l-.519.329c.661,1.038,1.295,2.114,1.884,3.192l.54-.294C149.785,359.91,149.143,358.824,148.474,357.775Z" transform="translate(-121.15 -275.765)" fill="#e6e6e6"/>
    <path id="Path_2525" data-name="Path 2525" d="M131.953,335.245l-.468.4c.8.936,1.573,1.916,2.306,2.906l.492-.367C133.545,337.183,132.761,336.193,131.953,335.245Z" transform="translate(-109.086 -259.262)" fill="#e6e6e6"/>
    <path id="Path_2526" data-name="Path 2526" d="M112.534,315.185l-.409.457c.92.821,1.822,1.686,2.681,2.566l.441-.431C114.378,316.887,113.465,316.015,112.534,315.185Z" transform="translate(-94.906 -244.569)" fill="#e6e6e6"/>
    <path id="Path_2527" data-name="Path 2527" d="M90.59,297.965l-.345.508c1.022.688,2.033,1.421,3,2.178l.38-.484C92.645,299.4,91.623,298.661,90.59,297.965Z" transform="translate(-78.88 -231.956)" fill="#e6e6e6"/>
    <path id="Path_2528" data-name="Path 2528" d="M71.4,286.005v.7c.639.334,1.274.685,1.894,1.043l.308-.532Q72.523,286.586,71.4,286.005Z" transform="translate(-65.08 -223.196)" fill="#e6e6e6"/>
    <path id="Path_2529" data-name="Path 2529" d="M179.57,464.191l.615-.011c.011.621.012,1.245,0,1.856l-.615-.01C179.582,465.422,179.581,464.8,179.57,464.191Z" transform="translate(-144.307 -353.701)" fill="#e6e6e6"/>
    <path id="Path_2530" data-name="Path 2530" d="M639.752,336.915l-.607.094c.19,1.215.34,2.456.45,3.684l.613-.054C640.1,339.4,639.945,338.143,639.752,336.915Z" transform="translate(-480.925 -260.486)" fill="#e6e6e6"/>
    <path id="Path_2531" data-name="Path 2531" d="M633.593,309.575l-.589.179c.356,1.177.674,2.384.944,3.585l.6-.136C634.276,311.989,633.952,310.769,633.593,309.575Z" transform="translate(-476.428 -240.46)" fill="#e6e6e6"/>
    <path id="Path_2532" data-name="Path 2532" d="M623.764,283.355l-.559.257c.514,1.121,1,2.271,1.431,3.422l.575-.217C624.77,285.654,624.286,284.487,623.764,283.355Z" transform="translate(-469.25 -221.255)" fill="#e6e6e6"/>
    <path id="Path_2533" data-name="Path 2533" d="M610.474,258.775l-.519.329c.661,1.038,1.295,2.114,1.884,3.192l.54-.294C611.785,260.91,611.143,259.824,610.474,258.775Z" transform="translate(-459.545 -203.251)" fill="#e6e6e6"/>
    <path id="Path_2534" data-name="Path 2534" d="M593.953,236.245l-.468.4c.8.936,1.573,1.916,2.306,2.906l.492-.367C595.545,238.182,594.761,237.193,593.953,236.245Z" transform="translate(-447.481 -186.749)" fill="#e6e6e6"/>
    <path id="Path_2535" data-name="Path 2535" d="M574.534,216.185l-.409.457c.92.821,1.822,1.686,2.681,2.566l.441-.431C576.378,217.887,575.465,217.015,574.534,216.185Z" transform="translate(-433.301 -172.056)" fill="#e6e6e6"/>
    <path id="Path_2536" data-name="Path 2536" d="M552.59,198.965l-.345.508c1.022.688,2.033,1.421,3,2.178l.38-.484C554.645,200.4,553.623,199.661,552.59,198.965Z" transform="translate(-417.275 -159.443)" fill="#e6e6e6"/>
    <path id="Path_2537" data-name="Path 2537" d="M533.4,187.005v.7c.639.334,1.273.685,1.894,1.043l.308-.532Q534.523,187.586,533.4,187.005Z" transform="translate(-403.475 -150.683)" fill="#e6e6e6"/>
    <path id="Path_2538" data-name="Path 2538" d="M641.57,365.191l.615-.011c.011.621.012,1.245,0,1.856l-.615-.01C641.582,366.422,641.581,365.8,641.57,365.191Z" transform="translate(-482.702 -281.188)" fill="#e6e6e6"/>
    <path id="Path_2539" data-name="Path 2539" d="M146.569,198.653h-.453V198.2h-.089v.454h-.454v.088h.454v.454h.089v-.454h.453Z" transform="translate(-106.626 -145.172)" fill="#f2f2f2"/>
    <path id="Path_2540" data-name="Path 2540" d="M127.028,301.01h-.453v-.454h-.089v.454h-.454v.089h.454v.453h.089V301.1h.453Z" transform="translate(-92.313 -220.144)" fill="#f2f2f2"/>
    <path id="Path_2541" data-name="Path 2541" d="M69.691,390.717h-.454v-.453h-.089v.453h-.453v.089h.453v.454h.089v-.454h.454Z" transform="translate(-50.316 -285.852)" fill="#f2f2f2"/>
    <path id="Path_2542" data-name="Path 2542" d="M264.3,189.261a32.857,32.857,0,1,1,15.245,12.24,10.628,10.628,0,1,1-15.245-12.24Z" transform="translate(-202.254 -114.835)" fill="#3f3d56"/>
    <path id="Path_2543" data-name="Path 2543" d="M347.669,190.679c7.532,0,12.715,4.178,12.715,10.184,0,3.977-1.928,6.729-5.644,8.918-3.5,2.029-4.68,3.515-4.68,6.086h0a1.587,1.587,0,0,1-1.587,1.587h-3.851a1.587,1.587,0,0,1-1.586-1.532l-.007-.2c-.341-4.138,1.1-6.709,4.74-8.838,3.395-2.029,4.821-3.314,4.821-5.8s-2.41-4.319-5.4-4.319a5.147,5.147,0,0,0-4.9,2.915,3.546,3.546,0,0,1-3.24,2.026h0a3.486,3.486,0,0,1-3.113-5.081C337.864,192.978,341.936,190.679,347.669,190.679Zm-5.283,34.428a4.312,4.312,0,1,1,4.3,4.138A4.207,4.207,0,0,1,342.387,225.108Z" transform="translate(-258.543 -153.374)" fill="#e0e0e5"/>
  </g>
</svg>
